<?xml version="1.0" encoding="utf-8"?>
<!-- Generator: Adobe Illustrator 25.1.0, SVG Export Plug-In . SVG Version: 6.00 Build 0)  -->
<svg version="1.1" id="Слой_1" xmlns="http://www.w3.org/2000/svg" xmlns:xlink="http://www.w3.org/1999/xlink" x="0px" y="0px"
	 viewBox="0 0 100 100" style="enable-background:new 0 0 100 100;" xml:space="preserve">
<style type="text/css">
	.st0{fill:none;stroke:#1D1D1B;stroke-width:3;stroke-miterlimit:10;}
</style>
<g>
	<path class="st0" d="M23.76,46.45H12.79c-0.39,0-0.56-0.49-0.26-0.74l36.26-29.06c0.71-0.57,1.71-0.57,2.42,0l36.26,29.06
		c0.31,0.24,0.13,0.74-0.26,0.74H76.24c-0.61,0-1.1,0.49-1.1,1.1v34.72c0,0.83-0.67,1.5-1.5,1.5H26.36c-0.83,0-1.5-0.67-1.5-1.5
		V47.55C24.86,46.94,24.37,46.45,23.76,46.45z"/>
	<path class="st0" d="M57.68,51.13H42.32c-0.84,0-1.52,0.68-1.52,1.52v31.13h18.4V52.64C59.2,51.81,58.52,51.13,57.68,51.13z"/>
</g>
</svg>
