<?xml version="1.0" encoding="utf-8"?>
<!-- Generator: Adobe Illustrator 25.1.0, SVG Export Plug-In . SVG Version: 6.00 Build 0)  -->
<svg version="1.1" id="Слой_1" xmlns="http://www.w3.org/2000/svg" xmlns:xlink="http://www.w3.org/1999/xlink" x="0px" y="0px"
	 viewBox="0 0 100 100" style="enable-background:new 0 0 100 100;" xml:space="preserve">
<style type="text/css">
	.st0{display:none;}
	.st1{display:inline;}
	.st2{fill:#1D1D1B;stroke:#1D1D1B;stroke-width:1.441;stroke-miterlimit:10;}
	.st3{fill:#1D1D1B;stroke:#1D1D1B;stroke-width:1.4994;stroke-miterlimit:10;}
	.st4{fill:#1D1D1B;stroke:#1D1D1B;stroke-miterlimit:10;}
</style>
<g id="Слой_1_1_" class="st0">
	<g class="st1">
		<polyline class="st2" points="32.1,49.8 39,53.8 43,47 63.1,13 56.2,8.9 36.1,42.9 21,34 17,40.8 32.1,49.8 39,53.8 43,47 		"/>
		<path class="st3" d="M42,17c0.2,1,0.3,1.7,0.5,2.4l-7.1,1.5c-1.1-5.3-5.9-9.2-11.5-9.1c-6.2,0.2-11.1,5.4-10.9,11.7
			c0.1,3.7,2,6.9,4.8,8.8l-3.8,6.2c-0.6-0.4-1.1-0.7-1.8-1.2L7,38.7c-1.7-2.6-1.7-2.6-3.5-5.1l3.1-4.2c-0.4-1.9-0.6-2.9-1-4.8
			l-4.5-2.6c0.6-3,0.6-3.1,1.2-6.1l5.2-0.8c1.1-1.6,1.6-2.4,2.7-4.1L8.8,5.9c2.5-1.7,2.6-1.7,5.1-3.5l4.2,3.1c1.9-0.4,2.9-0.6,4.8-1
			L25.6,0c3,0.6,3,0.6,6.1,1.2l0.8,5.2c1.6,1.1,2.5,1.6,4.1,2.7l5.1-1.3c1.7,2.6,1.7,2.6,3.5,5.1L42,17z"/>
	</g>
</g>
<g id="Слой_2_1_">
	<g>
		<path class="st4" d="M60.2,42c0-1.1,0-2.2-0.1-3.8l3.6-2.8c-1.9-4.4-1.7-3.7-3.6-8.1l-4.5,0.8c-2.2-2.1-3.1-2.9-5.3-5.1l0.6-4.5
			c-4.5-1.7-3.8-1.5-8.2-3.2l-2.6,3.7c-3.1,0.1-4.3,0.1-7.3,0.2L30,15.7c-4.4,1.9-3.7,1.7-8.1,3.6l0.8,4.5c-2.1,2.2-2.9,3.1-5,5.3
			l-4.5-0.6c-1.7,4.5-1.5,3.8-3.2,8.2l3.7,2.6c0.1,3.1,0.1,4.3,0.2,7.3l-3.6,2.8c1.9,4.4,1.6,3.7,3.6,8.1l4.5-0.8
			c1.2,1.1,2,1.8,2.7,2.6l6.8-7.2c-3.8-3.6-5.3-9.2-3.3-14.4c2.6-6.8,10.3-10.2,17.2-7.6c5.2,2,8.4,6.8,8.5,12L60.2,42z"/>
		<polyline class="st4" points="48.1,78.7 56.6,84.6 62.4,76.2 90,35.6 81.6,29.9 54,70.4 32.4,55.6 26.6,64.1 51.2,80.9 		"/>
	</g>
</g>
</svg>
