<?xml version="1.0" encoding="utf-8"?>
<!-- Generator: Adobe Illustrator 25.1.0, SVG Export Plug-In . SVG Version: 6.00 Build 0)  -->
<svg version="1.1" id="Слой_1" xmlns="http://www.w3.org/2000/svg" xmlns:xlink="http://www.w3.org/1999/xlink" x="0px" y="0px"
	 viewBox="0 0 100 100" style="enable-background:new 0 0 100 100;" xml:space="preserve">
<style type="text/css">
	.st0{fill:#1D1D1B;stroke:#1D1D1B;stroke-width:1.35;stroke-miterlimit:10;}
	.st1{fill:none;stroke:#1D1D1B;stroke-width:3;stroke-miterlimit:10;}
</style>
<g>
	<g>
		<path class="st0" d="M42.9,86.2l-0.4-3c-0.1-0.8-0.6-1.5-1.4-1.8l-6.8-2.8c-0.8-0.3-1.6-0.2-2.2,0.3l-2.4,1.9
			c-0.9,0.7-2.1,0.6-3-0.2l-7.2-7.2c-0.8-0.8-0.9-2.1-0.2-2.9l1.9-2.4c0.5-0.6,0.6-1.5,0.3-2.2l-2.9-6.8c-0.3-0.7-1-1.3-1.8-1.3
			l-3-0.3c-1.1-0.1-2-1.1-2-2.2l-0.1-10.2c0-1.1,0.8-2.1,1.9-2.2l3-0.4c0.8-0.1,1.5-0.6,1.8-1.4l2.8-6.8c0.3-0.8,0.2-1.6-0.3-2.2
			l-1.9-2.4c-0.7-0.9-0.6-2.1,0.1-3l7.2-7.2c0.8-0.8,2.1-0.9,3-0.2l2.4,1.9c0.6,0.5,1.5,0.6,2.2,0.3l6.8-2.9c0.7-0.3,1.3-1,1.3-1.8
			l0.3-3c0.1-1.1,1.1-2,2.2-2l10.2-0.1c1.1,0,2.1,0.8,2.2,1.9l0.4,3c0.1,0.8,0.6,1.5,1.4,1.8l6.8,2.8c0.8,0.3,1.6,0.2,2.2-0.3
			l2.3-1.9c0.9-0.7,2.2-0.6,2.9,0.1l7.2,7.2c0.8,0.8,0.9,2.1,0.2,3l-1.8,2.4c-0.5,0.6-0.6,1.5-0.3,2.2l2.8,6.8
			c0.3,0.7,1,1.3,1.8,1.3l3,0.3c1.1,0.1,2,1.1,2,2.2l0.1,10.2c0,1.1-0.8,2.1-1.9,2.2l-3,0.4c-0.8,0.1-1.5,0.6-1.8,1.4l-2.8,6.8
			c-0.3,0.8-0.2,1.6,0.3,2.2l1.9,2.3c0.7,0.9,0.6,2.2-0.2,2.9l-7.2,7.2c-0.8,0.8-2.1,0.9-2.9,0.2l-2.4-1.8c-0.6-0.5-1.5-0.6-2.2-0.3
			l-6.8,2.8c-0.7,0.3-1.3,1-1.3,1.8l-0.3,3c-0.1,1.1-1.1,2-2.2,2l-10.2,0.1C44,88.2,43.1,87.3,42.9,86.2z M34.1,76.6l8.8,3.6
			c0.8,0.3,1.3,1,1.4,1.8l0.3,2.4c0.1,1.1,1.1,2,2.2,1.9l7,0c1.1,0,2.1-0.9,2.2-2l0.3-2.4c0.1-0.8,0.6-1.5,1.3-1.8l8.7-3.7
			c0.7-0.3,1.6-0.2,2.2,0.3l1.9,1.5c0.9,0.7,2.2,0.6,2.9-0.2l4.9-5c0.8-0.8,0.9-2.1,0.2-2.9l-1.5-1.9c-0.5-0.6-0.6-1.5-0.3-2.2
			l3.6-8.8c0.3-0.8,1-1.3,1.8-1.4l2.4-0.3c1.1-0.1,2-1.1,1.9-2.2l0-7c0-1.1-0.9-2.1-2-2.2l-2.4-0.3c-0.8-0.1-1.5-0.6-1.8-1.3
			l-3.7-8.7c-0.3-0.7-0.2-1.6,0.3-2.2l1.5-1.9c0.7-0.9,0.6-2.2-0.2-3l-5-4.9c-0.8-0.8-2.1-0.9-2.9-0.1l-1.9,1.5
			c-0.6,0.5-1.5,0.6-2.2,0.3l-8.8-3.6c-0.8-0.3-1.3-1-1.4-1.8l-0.3-2.4c-0.1-1.1-1.1-2-2.2-1.9l-7,0c-1.1,0-2.1,0.9-2.2,2l-0.3,2.5
			c-0.1,0.8-0.6,1.5-1.3,1.8l-8.7,3.7c-0.7,0.3-1.6,0.2-2.2-0.3l-1.9-1.5c-0.9-0.7-2.2-0.6-3,0.2l-4.9,5c-0.8,0.8-0.9,2.1-0.1,3
			l1.5,1.9c0.5,0.6,0.6,1.5,0.3,2.2l-3.6,8.8c-0.3,0.8-1,1.3-1.8,1.4l-2.4,0.3c-1.1,0.1-2,1.1-1.9,2.2l0,7c0,1.1,0.9,2.1,2,2.2
			l2.5,0.3c0.8,0.1,1.5,0.6,1.8,1.3l3.7,8.7c0.3,0.7,0.2,1.6-0.3,2.2l-1.5,1.9c-0.7,0.9-0.6,2.2,0.2,2.9l5,4.9
			c0.8,0.8,2.1,0.9,3,0.2l1.9-1.5C32.5,76.4,33.3,76.3,34.1,76.6z"/>
	</g>
	<path class="st1" d="M50,30.8c10.6,0,19.2,8.6,19.2,19.2c-1,25.5-37.4,25.5-38.4,0C30.8,39.4,39.4,30.8,50,30.8z"/>
</g>
</svg>
