<?xml version="1.0" encoding="utf-8"?>
<!-- Generator: Adobe Illustrator 25.1.0, SVG Export Plug-In . SVG Version: 6.00 Build 0)  -->
<svg version="1.1" id="Слой_1" xmlns="http://www.w3.org/2000/svg" xmlns:xlink="http://www.w3.org/1999/xlink" x="0px" y="0px"
	 viewBox="0 0 100 100" style="enable-background:new 0 0 100 100;" xml:space="preserve">
<style type="text/css">
	.st0{fill:#FFFFFF;stroke:#1D1D1B;stroke-width:3;stroke-miterlimit:10;}
	.st1{fill:#FFFFFF;}
	.st2{fill:#1D1D1B;}
</style>
<g>
	<path class="st0" d="M70.26,82.8H29.74c-6.93,0-12.54-5.62-12.54-12.54V29.74c0-6.93,5.62-12.54,12.54-12.54h40.52
		c6.93,0,12.54,5.62,12.54,12.54v40.52C82.8,77.19,77.19,82.8,70.26,82.8z"/>
	<g>
		<polyline class="st1" points="62.89,34.9 46.79,65.1 37.11,55.92 		"/>
		<g>
			<path class="st2" d="M61.1,33.86c-4.71,8.83-9.42,17.67-14.13,26.5c-0.66,1.23-1.31,2.46-1.97,3.69
				c1.09-0.14,2.17-0.28,3.26-0.42c-3.23-3.06-6.46-6.12-9.69-9.17c-1.94-1.84-4.88,1.09-2.93,2.93c3.23,3.06,6.46,6.12,9.69,9.17
				c0.93,0.89,2.61,0.79,3.26-0.42c4.71-8.83,9.42-17.67,14.13-26.5c0.66-1.23,1.31-2.46,1.97-3.69
				C65.94,33.59,62.36,31.5,61.1,33.86L61.1,33.86z"/>
		</g>
	</g>
</g>
</svg>
