<?xml version="1.0" encoding="utf-8"?>
<!-- Generator: Adobe Illustrator 25.1.0, SVG Export Plug-In . SVG Version: 6.00 Build 0)  -->
<svg version="1.1" xmlns="http://www.w3.org/2000/svg" xmlns:xlink="http://www.w3.org/1999/xlink" x="0px" y="0px"
	 viewBox="0 0 100 100" style="enable-background:new 0 0 100 100;" xml:space="preserve">
<style type="text/css">
	.st0{display:none;}
	.st1{display:inline;}
	.st2{fill:#1D1D1B;stroke:#1D1D1B;stroke-width:1.441;stroke-miterlimit:10;}
	.st3{fill:#1D1D1B;stroke:#1D1D1B;stroke-width:1.4994;stroke-miterlimit:10;}
	.st4{fill:#1D1D1B;stroke:#1D1D1B;stroke-miterlimit:10;}
</style>
<g id="Слой_1" class="st0">
	<g class="st1">
		<polyline class="st2" points="32.08,49.75 38.99,53.83 43.05,46.95 63.09,12.99 56.18,8.92 36.14,42.87 21.03,33.96 16.98,40.83 
			32.08,49.75 38.99,53.83 43.05,46.95 		"/>
		<path class="st3" d="M42,17.03c0.2,0.98,0.35,1.71,0.5,2.44l-7.1,1.47c-1.06-5.32-5.85-9.25-11.48-9.06
			c-6.24,0.21-11.14,5.44-10.93,11.7c0.12,3.67,1.98,6.86,4.75,8.83l-3.82,6.16c-0.55-0.36-1.11-0.73-1.84-1.21L7.03,38.7
			c-1.73-2.57-1.73-2.57-3.47-5.13l3.08-4.21c-0.4-1.91-0.59-2.87-0.98-4.8l-4.53-2.62c0.57-3.05,0.59-3.06,1.16-6.1l5.17-0.79
			c1.07-1.63,1.6-2.45,2.68-4.08L8.82,5.89c2.54-1.73,2.56-1.73,5.11-3.47l4.23,3.1c1.91-0.4,2.87-0.61,4.77-1L25.58,0
			c3.03,0.58,3.05,0.59,6.08,1.17l0.79,5.16c1.64,1.08,2.46,1.6,4.08,2.68l5.08-1.32c1.74,2.57,1.74,2.57,3.49,5.13L42,17.03z"/>
	</g>
</g>
<g id="Слой_2">
	<g>
		<path class="st4" d="M61.08,42.76c-0.04-1.13-0.05-2.23-0.1-3.84l3.6-2.77c-1.94-4.36-1.66-3.72-3.58-8.08l-4.48,0.82
			c-2.23-2.13-3.1-2.93-5.33-5.07l0.59-4.51c-4.45-1.72-3.8-1.46-8.25-3.18l-2.59,3.74c-3.08,0.07-4.26,0.11-7.34,0.18l-2.77-3.6
			c-4.36,1.92-3.72,1.66-8.08,3.59l0.81,4.46c-2.12,2.23-2.93,3.1-5.05,5.33L14,29.25c-1.72,4.45-1.47,3.79-3.18,8.25l3.74,2.59
			c0.09,3.07,0.11,4.27,0.2,7.34l-3.61,2.75c1.94,4.36,1.65,3.73,3.59,8.1l4.47-0.82c1.16,1.1,1.95,1.85,2.74,2.62l6.82-7.25
			c-3.8-3.58-5.29-9.24-3.29-14.42c2.64-6.84,10.32-10.25,17.16-7.62c5.16,1.99,8.38,6.84,8.51,12.03L61.08,42.76z"/>
		<polyline class="st4" points="47.23,77.95 55.79,83.86 61.56,75.4 89.18,34.85 80.75,29.11 53.13,69.65 31.5,54.86 25.73,63.33 
			50.33,80.09 		"/>
	</g>
</g>
</svg>
